{
    "asset" : {
        "generator" : "Khronos glTF Blender I/O v1.6.16",
        "version" : "2.0"
    },
    "scene" : 0,
    "scenes" : [
        {
            "name" : "Scene",
            "nodes" : [
                0,
                1,
                2
            ]
        }
    ],
    "nodes" : [
        {
            "mesh" : 0,
            "name" : "Plane",
            "translation" : [
                -0.7987767457962036,
                0.012668013572692871,
                0
            ]
        },
        {
            "mesh" : 1,
            "name" : "Plane.001"
        },
        {
            "mesh" : 2,
            "name" : "Cube"
        }
    ],
    "meshes" : [
        {
            "name" : "Plane",
            "primitives" : [
                {
                    "attributes" : {
                        "POSITION" : 0,
                        "NORMAL" : 1,
                        "TEXCOORD_0" : 2
                    },
                    "indices" : 3
                }
            ]
        },
        {
            "name" : "Plane.001",
            "primitives" : [
                {
                    "attributes" : {
                        "POSITION" : 4,
                        "NORMAL" : 5,
                        "TEXCOORD_0" : 6
                    },
                    "indices" : 7
                }
            ]
        },
        {
            "name" : "Cube.001",
            "primitives" : [
                {
                    "attributes" : {
                        "POSITION" : 8,
                        "NORMAL" : 9,
                        "TEXCOORD_0" : 10
                    },
                    "indices" : 11
                }
            ]
        }
    ],
    "accessors" : [
        {
            "bufferView" : 0,
            "componentType" : 5126,
            "count" : 560,
            "max" : [
                1.75693941116333,
                0,
                1
            ],
            "min" : [
                -0.1722489595413208,
                -0.05000000074505806,
                -1
            ],
            "type" : "VEC3"
        },
        {
            "bufferView" : 1,
            "componentType" : 5126,
            "count" : 560,
            "type" : "VEC3"
        },
        {
            "bufferView" : 2,
            "componentType" : 5126,
            "count" : 560,
            "type" : "VEC2"
        },
        {
            "bufferView" : 3,
            "componentType" : 5123,
            "count" : 2580,
            "type" : "SCALAR"
        },
        {
            "bufferView" : 4,
            "componentType" : 5126,
            "count" : 96,
            "max" : [
                1,
                0,
                1
            ],
            "min" : [
                -1,
                -0.20000000298023224,
                -1
            ],
            "type" : "VEC3"
        },
        {
            "bufferView" : 5,
            "componentType" : 5126,
            "count" : 96,
            "type" : "VEC3"
        },
        {
            "bufferView" : 6,
            "componentType" : 5126,
            "count" : 96,
            "type" : "VEC2"
        },
        {
            "bufferView" : 7,
            "componentType" : 5123,
            "count" : 132,
            "type" : "SCALAR"
        },
        {
            "bufferView" : 8,
            "componentType" : 5126,
            "count" : 1004,
            "max" : [
                1.1626828908920288,
                1.8021886348724365,
                1.062682867050171
            ],
            "min" : [
                -1.062682867050171,
                -0.19781142473220825,
                -1.1626828908920288
            ],
            "type" : "VEC3"
        },
        {
            "bufferView" : 9,
            "componentType" : 5126,
            "count" : 1004,
            "type" : "VEC3"
        },
        {
            "bufferView" : 10,
            "componentType" : 5126,
            "count" : 1004,
            "type" : "VEC2"
        },
        {
            "bufferView" : 11,
            "componentType" : 5123,
            "count" : 1572,
            "type" : "SCALAR"
        }
    ],
    "bufferViews" : [
        {
            "buffer" : 0,
            "byteLength" : 6720,
            "byteOffset" : 0
        },
        {
            "buffer" : 0,
            "byteLength" : 6720,
            "byteOffset" : 6720
        },
        {
            "buffer" : 0,
            "byteLength" : 4480,
            "byteOffset" : 13440
        },
        {
            "buffer" : 0,
            "byteLength" : 5160,
            "byteOffset" : 17920
        },
        {
            "buffer" : 0,
            "byteLength" : 1152,
            "byteOffset" : 23080
        },
        {
            "buffer" : 0,
            "byteLength" : 1152,
            "byteOffset" : 24232
        },
        {
            "buffer" : 0,
            "byteLength" : 768,
            "byteOffset" : 25384
        },
        {
            "buffer" : 0,
            "byteLength" : 264,
            "byteOffset" : 26152
        },
        {
            "buffer" : 0,
            "byteLength" : 12048,
            "byteOffset" : 26416
        },
        {
            "buffer" : 0,
            "byteLength" : 12048,
            "byteOffset" : 38464
        },
        {
            "buffer" : 0,
            "byteLength" : 8032,
            "byteOffset" : 50512
        },
        {
            "buffer" : 0,
            "byteLength" : 3144,
            "byteOffset" : 58544
        }
    ],
    "buffers" : [
        {
            "byteLength" : 61688,
            "uri" : "try.bin"
        }
    ]
}
