{
    "asset" : {
        "generator" : "Khronos glTF Blender I/O v1.6.16",
        "version" : "2.0"
    },
    "scene" : 0,
    "scenes" : [
        {
            "name" : "Scene",
            "nodes" : [
                0
            ]
        }
    ],
    "nodes" : [
        {
            "mesh" : 0,
            "name" : "6Story_Stack"
        }
    ],
    "materials" : [
        {
            "doubleSided" : true,
            "name" : "Texture",
            "pbrMetallicRoughness" : {}
        }
    ],
    "meshes" : [
        {
            "name" : "Cube.137",
            "primitives" : [
                {
                    "attributes" : {
                        "POSITION" : 0,
                        "NORMAL" : 1,
                        "TEXCOORD_0" : 2
                    },
                    "indices" : 3,
                    "material" : 0
                }
            ]
        }
    ],
    "accessors" : [
        {
            "bufferView" : 0,
            "componentType" : 5126,
            "count" : 11216,
            "max" : [
                1.0793230533599854,
                7.8001203536987305,
                1.4212028980255127
            ],
            "min" : [
                -1.0793229341506958,
                -0.003245369764044881,
                -1.077302098274231
            ],
            "type" : "VEC3"
        },
        {
            "bufferView" : 1,
            "componentType" : 5126,
            "count" : 11216,
            "type" : "VEC3"
        },
        {
            "bufferView" : 2,
            "componentType" : 5126,
            "count" : 11216,
            "type" : "VEC2"
        },
        {
            "bufferView" : 3,
            "componentType" : 5123,
            "count" : 18354,
            "type" : "SCALAR"
        }
    ],
    "bufferViews" : [
        {
            "buffer" : 0,
            "byteLength" : 134592,
            "byteOffset" : 0
        },
        {
            "buffer" : 0,
            "byteLength" : 134592,
            "byteOffset" : 134592
        },
        {
            "buffer" : 0,
            "byteLength" : 89728,
            "byteOffset" : 269184
        },
        {
            "buffer" : 0,
            "byteLength" : 36708,
            "byteOffset" : 358912
        }
    ],
    "buffers" : [
        {
            "byteLength" : 395620,
            "uri" : "data:application/octet-stream;base64,"
        }
    ]
}
